<mxfile host="65bd71144e">
    <diagram id="8rTiRFm8yep4eGdq_KLO" name="Page-1">
        <mxGraphModel dx="1133" dy="482" grid="1" gridSize="10" guides="1" tooltips="1" connect="1" arrows="1" fold="1" page="1" pageScale="1" pageWidth="850" pageHeight="1100" background="#FFFFFF" math="0" shadow="0">
            <root>
                <mxCell id="0"/>
                <mxCell id="1" parent="0"/>
                <mxCell id="12" value="Program" style="rounded=1;whiteSpace=wrap;html=1;dashed=1;fillColor=none;verticalAlign=top;fontSize=17;" parent="1" vertex="1">
                    <mxGeometry x="80" y="80" width="380" height="380" as="geometry"/>
                </mxCell>
                <mxCell id="6" value="depends on" style="rounded=0;orthogonalLoop=1;jettySize=auto;html=1;exitX=0.25;exitY=1;exitDx=0;exitDy=0;entryX=0.5;entryY=0;entryDx=0;entryDy=0;endArrow=none;endFill=0;startArrow=classic;startFill=1;" parent="1" source="2" target="4" edge="1">
                    <mxGeometry relative="1" as="geometry"/>
                </mxCell>
                <mxCell id="2" value="Classical code&lt;span style=&quot;color: rgba(0 , 0 , 0 , 0) ; font-family: monospace ; font-size: 0px&quot;&gt;%3CmxGraphModel%3E%3Croot%3E%3CmxCell%20id%3D%220%22%2F%3E%3CmxCell%20id%3D%221%22%20parent%3D%220%22%2F%3E%3CmxCell%20id%3D%222%22%20value%3D%22Node%201%22%20style%3D%22ellipse%3BwhiteSpace%3Dwrap%3Bhtml%3D1%3Baspect%3Dfixed%3B%22%20vertex%3D%221%22%20parent%3D%221%22%3E%3CmxGeometry%20x%3D%22230%22%20y%3D%22320%22%20width%3D%2280%22%20height%3D%2280%22%20as%3D%22geometry%22%2F%3E%3C%2FmxCell%3E%3C%2Froot%3E%3C%2FmxGraphModel%3E&lt;/span&gt;" style="rounded=0;whiteSpace=wrap;html=1;" parent="1" vertex="1">
                    <mxGeometry x="210" y="130" width="120" height="60" as="geometry"/>
                </mxCell>
                <mxCell id="8" value="depends on" style="edgeStyle=none;rounded=0;orthogonalLoop=1;jettySize=auto;html=1;exitX=0.5;exitY=0;exitDx=0;exitDy=0;entryX=0.75;entryY=1;entryDx=0;entryDy=0;startArrow=none;startFill=0;endArrow=classic;endFill=1;" parent="1" source="3" target="2" edge="1">
                    <mxGeometry relative="1" as="geometry"/>
                </mxCell>
                <mxCell id="10" value="depends on" style="edgeStyle=none;rounded=0;orthogonalLoop=1;jettySize=auto;html=1;exitX=1;exitY=0.5;exitDx=0;exitDy=0;startArrow=none;startFill=0;endArrow=classic;endFill=1;entryX=0;entryY=0.5;entryDx=0;entryDy=0;entryPerimeter=0;" parent="1" source="3" target="11" edge="1">
                    <mxGeometry relative="1" as="geometry">
                        <mxPoint x="540" y="300" as="targetPoint"/>
                    </mxGeometry>
                </mxCell>
                <mxCell id="3" value="Classical code&lt;span style=&quot;color: rgba(0 , 0 , 0 , 0) ; font-family: monospace ; font-size: 0px&quot;&gt;%3CmxGraphModel%3E%3Croot%3E%3CmxCell%20id%3D%220%22%2F%3E%3CmxCell%20id%3D%221%22%20parent%3D%220%22%2F%3E%3CmxCell%20id%3D%222%22%20value%3D%22Node%201%22%20style%3D%22ellipse%3BwhiteSpace%3Dwrap%3Bhtml%3D1%3Baspect%3Dfixed%3B%22%20vertex%3D%221%22%20parent%3D%221%22%3E%3CmxGeometry%20x%3D%22230%22%20y%3D%22320%22%20width%3D%2280%22%20height%3D%2280%22%20as%3D%22geometry%22%2F%3E%3C%2FmxCell%3E%3C%2Froot%3E%3C%2FmxGraphModel%3E&lt;/span&gt;" style="rounded=0;whiteSpace=wrap;html=1;" parent="1" vertex="1">
                    <mxGeometry x="320" y="270" width="120" height="60" as="geometry"/>
                </mxCell>
                <mxCell id="7" value="depends&lt;br&gt;on" style="edgeStyle=none;rounded=0;orthogonalLoop=1;jettySize=auto;html=1;exitX=1;exitY=0.5;exitDx=0;exitDy=0;entryX=0;entryY=0.5;entryDx=0;entryDy=0;startArrow=classic;startFill=1;endArrow=none;endFill=0;" parent="1" source="4" target="3" edge="1">
                    <mxGeometry relative="1" as="geometry"/>
                </mxCell>
                <mxCell id="4" value="Quantum code" style="rounded=0;whiteSpace=wrap;html=1;" parent="1" vertex="1">
                    <mxGeometry x="120" y="240" width="120" height="60" as="geometry"/>
                </mxCell>
                <mxCell id="9" value="depends on" style="edgeStyle=none;rounded=0;orthogonalLoop=1;jettySize=auto;html=1;exitX=0.75;exitY=0;exitDx=0;exitDy=0;entryX=0.25;entryY=1;entryDx=0;entryDy=0;startArrow=none;startFill=0;endArrow=classic;endFill=1;" parent="1" source="5" target="3" edge="1">
                    <mxGeometry relative="1" as="geometry"/>
                </mxCell>
                <mxCell id="5" value="Quantum code" style="rounded=0;whiteSpace=wrap;html=1;" parent="1" vertex="1">
                    <mxGeometry x="210" y="380" width="120" height="60" as="geometry"/>
                </mxCell>
                <mxCell id="11" value="Classical code&lt;br&gt;on other node" style="rounded=0;whiteSpace=wrap;html=1;dashed=1;" parent="1" vertex="1">
                    <mxGeometry x="550" y="270" width="120" height="60" as="geometry"/>
                </mxCell>
            </root>
        </mxGraphModel>
    </diagram>
</mxfile>